<svg xmlns="http://www.w3.org/2000/svg" viewBox="0 0 808.3 269.65"><defs><style>.cls-1,.cls-2{font-size:112.42px;font-family:Candara-Bold, Candara;font-weight:700;letter-spacing:0.01em;}.cls-1{fill:#fff;}.cls-2,.cls-3,.cls-4{fill:#1d1d1b;}.cls-4{stroke:#1d1d1b;stroke-miterlimit:10;stroke-width:1.57px;}</style></defs><g id="Layer_2" data-name="Layer 2"><text class="cls-1" transform="translate(-644.56 138.72)">empat</text><text class="cls-2" transform="translate(237.82 138.72)">empat</text><path class="cls-3" d="M447.49,199.62a12.1,12.1,0,0,1-5.3,3.41,23.07,23.07,0,0,1-7.76,1.21,30.66,30.66,0,0,1-7.82-1,22.08,22.08,0,0,1-6.72-2.93l1-1.79a29.89,29.89,0,0,0,6.72,2.65,27.75,27.75,0,0,0,7.41,1.07,18.24,18.24,0,0,0,6.14-1,10.18,10.18,0,0,0,4.24-2.73,5.84,5.84,0,0,0,1.55-4,4.69,4.69,0,0,0-1.66-3.72,10.31,10.31,0,0,0-4.17-2.14q-2.5-.69-6.65-1.59c-3-.59-5.41-1.16-7.13-1.68a12.43,12.43,0,0,1-4.45-2.38,5.33,5.33,0,0,1-1.86-4.28,7.07,7.07,0,0,1,2-4.93,13.11,13.11,0,0,1,5.51-3.37,24,24,0,0,1,7.86-1.21,27.18,27.18,0,0,1,5.93.62,18.17,18.17,0,0,1,4.76,1.72v2.14a15.81,15.81,0,0,0-4.83-1.86,26.69,26.69,0,0,0-6.06-.69,20.45,20.45,0,0,0-6.55,1,11.47,11.47,0,0,0-4.59,2.65,5.14,5.14,0,0,0-1.69,3.69A3.89,3.89,0,0,0,425,181.7a10.65,10.65,0,0,0,3.78,1.89q2.25.66,6.24,1.55a68.16,68.16,0,0,1,7.52,1.8,13.15,13.15,0,0,1,4.86,2.72,6.24,6.24,0,0,1,2,4.86A7.56,7.56,0,0,1,447.49,199.62Z"/><path class="cls-3" d="M464.62,202.72a8.61,8.61,0,0,1-3.2-4.93,34.35,34.35,0,0,1-1-9.34V171.63h-8v-2.06h8V158.74h2.34v10.83h11.38v2.06H462.76v16.82a38.32,38.32,0,0,0,.69,8.31,6.64,6.64,0,0,0,2.45,4.14,8.68,8.68,0,0,0,4.93,1.2,10.43,10.43,0,0,0,4.34-.76v2.07a11.83,11.83,0,0,1-4.55.83A10.49,10.49,0,0,1,464.62,202.72Z"/><path class="cls-3" d="M487.82,199a10.11,10.11,0,0,0,7.76,3.06,13.83,13.83,0,0,0,7-1.82,15.87,15.87,0,0,0,5-4.35,7.89,7.89,0,0,0,1.82-4.37V169.57h2.42V204h-2.63l.21-7.58a23.14,23.14,0,0,1-6.37,5.69,15.31,15.31,0,0,1-7.83,2,12,12,0,0,1-9.2-3.62q-3.42-3.62-3.41-9.89V169.57H485v21.09A11.7,11.7,0,0,0,487.82,199Z"/><path class="cls-3" d="M547.42,204v-6.55a14.89,14.89,0,0,1-5.31,5,14.62,14.62,0,0,1-7.1,1.72,13.82,13.82,0,0,1-7.55-2.07,13.53,13.53,0,0,1-5.07-6,25.2,25.2,0,0,1,0-18.58,13.42,13.42,0,0,1,5.06-6,14.23,14.23,0,0,1,7.79-2.1,15.33,15.33,0,0,1,7.14,1.62,13.56,13.56,0,0,1,5.07,4.45v-23.1h2.34V204Zm-6.11-3.27a11.56,11.56,0,0,0,4.45-3.83,9.2,9.2,0,0,0,1.66-5.31v-10.2a8.59,8.59,0,0,0-1.56-4.82,11,11,0,0,0-4.37-3.76,13.9,13.9,0,0,0-6.28-1.41,11,11,0,0,0-9,4q-3.27,4-3.28,11.09,0,7.32,3.38,11.48a11,11,0,0,0,9,4.17A13.18,13.18,0,0,0,541.31,200.76Z"/><path class="cls-3" d="M561.24,157.05a2.95,2.95,0,0,1,3.51,0,2.31,2.31,0,0,1,0,3.35A2.63,2.63,0,0,1,563,161a2.6,2.6,0,0,1-1.79-.62,2.14,2.14,0,0,1-.69-1.66A2.08,2.08,0,0,1,561.24,157.05Zm2.93,12.52V204h-2.42V169.57Z"/><path class="cls-4" d="M579.82,163a29.82,29.82,0,0,1,40.78-11.13,28.3,28.3,0,0,1,10.66,11,32.26,32.26,0,0,1,3.89,15.81,30.44,30.44,0,0,1-3.89,15.33,28,28,0,0,1-10.66,10.66,31.64,31.64,0,0,1-30.18,0,28,28,0,0,1-10.66-10.66,30.44,30.44,0,0,1-3.89-15.33A31.63,31.63,0,0,1,579.82,163Zm47.78,1.5a24.94,24.94,0,0,0-9.16-9.52,25.08,25.08,0,0,0-35,9.52,28.5,28.5,0,0,0-3.29,13.83,28.91,28.91,0,0,0,3.24,13.77,23.1,23.1,0,0,0,9,9.46,27,27,0,0,0,26.1,0,23.56,23.56,0,0,0,9.1-9.46,28.49,28.49,0,0,0,3.3-13.77A28,28,0,0,0,627.6,164.54Z"/><path class="cls-4" d="M619.5,188.18a13.45,13.45,0,0,1-4.74,5.73,14.38,14.38,0,0,1-7.2,2.44A14.54,14.54,0,0,1,600,195a13.1,13.1,0,0,1-5.51-5,16.36,16.36,0,0,1-2.41-7.65c0-.47,0-.92,0-1.37-.8,0-1.61.12-2.42.18,0,.52,0,1,0,1.58a17.28,17.28,0,0,0,2.84,8.49,15.75,15.75,0,0,0,6.48,5.58,17.07,17.07,0,0,0,8.72,1.52,16.9,16.9,0,0,0,8.33-2.8,15.85,15.85,0,0,0,5.58-6.47,17.09,17.09,0,0,0,1.56-8c-.79,0-1.58.06-2.38.07A15.74,15.74,0,0,1,619.5,188.18Z"/></g></svg>