<svg xmlns="http://www.w3.org/2000/svg" viewBox="0 0 436.27 821.11"><defs><style>.cls-1{fill:#eccfb6;}</style></defs><g id="Layer_2" data-name="Layer 2"><circle class="cls-1" cx="79.41" cy="534.25" r="45.25"/><circle class="cls-1" cx="216.3" cy="671.13" r="45.25"/><path class="cls-1" d="M324.89,563.16a45,45,0,0,1-13.22-31.5,24.74,24.74,0,0,0-24.48-24.47,45.25,45.25,0,1,1,45.71-45.71A24.74,24.74,0,0,0,357.38,486a45.24,45.24,0,1,1-32.49,77.21Z"/><path class="cls-1" d="M388.88,424.78A45,45,0,0,1,357.38,438a24.76,24.76,0,0,0-24.48,24.48,45.25,45.25,0,1,1-45.71-45.71,24.76,24.76,0,0,0,24.48-24.48,45.24,45.24,0,1,1,77.21,32.5Z"/><path class="cls-1" d="M181.55,357.72a45,45,0,0,1-31.5,13.22,24.74,24.74,0,0,0-24.48,24.47A45.25,45.25,0,1,1,79.86,349.7a24.74,24.74,0,0,0,24.48-24.47,45.24,45.24,0,1,1,77.21,32.49Z"/><path class="cls-1" d="M250.74,426.91a45,45,0,0,1-31.5,13.22,24.76,24.76,0,0,0-24.48,24.48,45.25,45.25,0,1,1-45.71-45.71,24.76,24.76,0,0,0,24.48-24.48,45.24,45.24,0,1,1,77.21,32.49Z"/><path class="cls-1" d="M117.55,496.1a45,45,0,0,1-13.21-31.49,24.76,24.76,0,0,0-24.48-24.48,45.25,45.25,0,1,1,45.71-45.71,24.76,24.76,0,0,0,24.48,24.48,45.23,45.23,0,1,1-32.5,77.2Z"/><path class="cls-1" d="M186.75,426.91a45,45,0,0,1-13.22-31.5,24.74,24.74,0,0,0-24.48-24.47,45.25,45.25,0,1,1,45.71-45.71,24.74,24.74,0,0,0,24.48,24.47,45.24,45.24,0,1,1-32.49,77.21Z"/><path class="cls-1" d="M253.53,632.08a45.07,45.07,0,0,1-13.17-30,24.75,24.75,0,0,0-23.63-23.62,45.25,45.25,0,1,1,47.21-47.21,24.75,24.75,0,0,0,23.63,23.62,45.24,45.24,0,1,1-34,77.17Z"/><path class="cls-1" d="M178,244.38a45.11,45.11,0,0,1,11.86-30.5,24.74,24.74,0,0,0,0-33.41,45.25,45.25,0,1,1,66.77,0,24.74,24.74,0,0,0,0,33.41A45.24,45.24,0,1,1,178,244.38Z"/><path class="cls-1" d="M222.86,105.06a45.12,45.12,0,0,1,30.5,11.87,24.74,24.74,0,0,0,33.41,0,45.25,45.25,0,1,1,0,66.76,24.74,24.74,0,0,0-33.41,0,45.24,45.24,0,1,1-30.5-78.63Z"/><path class="cls-1" d="M273.49,246.81a45.08,45.08,0,0,1,11.86-30.5,24.74,24.74,0,0,0,0-33.41,45.26,45.26,0,1,1,66.77,0,24.74,24.74,0,0,0,0,33.41,45.23,45.23,0,1,1-78.63,30.5Z"/><path class="cls-1" d="M224.36,200.91a45.12,45.12,0,0,1,30.5,11.87,24.74,24.74,0,0,0,33.41,0,45.25,45.25,0,1,1,0,66.76,24.77,24.77,0,0,0-33.41,0,45.24,45.24,0,1,1-30.5-78.63Z"/></g></svg>